<?xml version="1.0" standalone="no"?><!DOCTYPE svg PUBLIC "-//W3C//DTD SVG 1.1//EN" "http://www.w3.org/Graphics/SVG/1.1/DTD/svg11.dtd"><svg t="1608481952123" class="icon" viewBox="0 0 1024 1024" version="1.1" xmlns="http://www.w3.org/2000/svg" p-id="1018" xmlns:xlink="http://www.w3.org/1999/xlink" width="200" height="200"><defs><style type="text/css"></style></defs><path d="M512 948.38053378c-58.88307744 0-116.02223701-11.54367334-169.82915625-34.3108371-51.9604708-21.98559375-98.6289293-53.45615654-138.70665703-93.53388428-40.07862685-40.07862685-71.54739053-86.74618623-93.53388428-138.70755615-22.76716377-53.80691924-34.31083711-110.94517881-34.31083711-169.82915625s11.54367334-116.02223701 34.31083711-169.82915625c21.98649287-51.9604708 53.45525742-98.6289293 93.53388428-138.70665703 40.07862685-40.07862685 86.74618623-71.54739053 138.70665703-93.53388428C395.97776299 87.16313955 453.11692256 75.61946622 512 75.61946622c58.88397656 0 116.02223701 11.54367334 169.82915625 34.3108371 51.9604708 21.98559375 98.62803018 53.45525742 138.70665703 93.53388428s71.54829052 86.74618623 93.53388428 138.70665703c22.76716377 53.80691924 34.31083711 110.94517881 34.31083711 169.82915625s-11.54367334 116.02133789-34.31083711 169.82915625c-21.98559375 51.9604708-53.45615654 98.6289293-93.53388428 138.70755615s-86.74528711 71.54829052-138.70665703 93.53388428C628.02223701 936.83686045 570.88397656 948.38053378 512 948.38053378zM512 102.60117266c-225.74334638 0-409.39882734 183.65548183-409.39882734 409.39882734 0 225.74424551 183.65548183 409.39972734 409.39882734 409.39972734s409.39882734-183.65548183 409.39882734-409.39972734C921.39882734 286.25665362 737.74334638 102.60117266 512 102.60117266z" fill="#8a8a8a" p-id="1019"></path></svg>